<svg xmlns="http://www.w3.org/2000/svg" xmlns:cc="http://web.resource.org/cc/" xmlns:svg="http://www.w3.org/2000/svg" id="svg2" width="816" height="1056"><defs id="defs4"><marker id="Arrow2Mend" orient="auto" overflow="visible" refX="0" refY="0"><path id="path2155" fill-rule="evenodd" stroke-linejoin="round" stroke-width=".625" d="M 8.7185878,4.0337352 L -2.2072895,0.016013256 L 8.7185884,-4.0017078 C 6.9730900,-1.6296469 6.9831476,1.6157441 8.7185878,4.0337352 z" font-size="12" transform="scale(0.6) rotate(180) translate(-5,0)"/></marker><marker id="Arrow2Lend" orient="auto" overflow="visible" refX="0" refY="0"><path id="path2158" fill-rule="evenodd" stroke-linejoin="round" stroke-width=".625" d="M 8.7185878,4.0337352 L -2.2072895,0.016013256 L 8.7185884,-4.0017078 C 6.9730900,-1.6296469 6.9831476,1.6157441 8.7185878,4.0337352 z" font-size="12" transform="scale(1.1) rotate(180) translate(-5,0)"/></marker></defs><metadata id="metadata7"/><g id="layer1"><rect id="rect2037" width="97.747" height="32.937" x="240.52" y="87.227" fill="none" fill-opacity="1" stroke="#000" stroke-dasharray="none" stroke-dashoffset="0" stroke-linecap="butt" stroke-linejoin="round" stroke-miterlimit="4" stroke-opacity="1" stroke-width="1.019" opacity="1"/><rect id="rect2039" width="97.747" height="33.284" x="441.813" y="86.514" fill="none" fill-opacity="1" stroke="#000" stroke-dasharray="none" stroke-dashoffset="0" stroke-linecap="butt" stroke-linejoin="round" stroke-miterlimit="4" stroke-opacity="1" stroke-width="1.025" opacity="1"/><path id="path2188" fill="none" fill-opacity="1" stroke="#000" stroke-dasharray="none" stroke-dashoffset="0" stroke-linecap="butt" stroke-linejoin="round" stroke-miterlimit="4" stroke-opacity="1" stroke-width="1.98" marker-end="url(#Arrow2Mend)" d="M 404.95956,262.04476 A 54.000000,27.000000 0 0 1 299.76299,269.52598" opacity="1" transform="matrix(1.223136,0.000000,0.000000,0.724049,-40.99101,-69.67192)"/><path id="path2192" fill="none" fill-opacity="1" stroke="#000" stroke-dasharray="none" stroke-dashoffset="0" stroke-linecap="butt" stroke-linejoin="round" stroke-miterlimit="4" stroke-opacity="1" stroke-width="1.98" marker-end="url(#Arrow2Mend)" d="M 404.95956,262.04476 A 54.000000,27.000000 0 0 1 299.76299,269.52598" opacity="1" transform="matrix(-1.223136,0.000000,0.000000,-0.724049,814.9695,276.3835)"/><text id="text2194" x="252.631" y="111.41" fill="#000" fill-opacity="1" stroke="none" stroke-linecap="butt" stroke-linejoin="miter" stroke-opacity="1" stroke-width="1" font-family="Bitstream Vera Sans" font-size="23.764" font-stretch="normal" font-style="oblique" font-variant="normal" font-weight="normal" text-anchor="start" writing-mode="lr-tb" xml:space="preserve" style="text-align:start;line-height:125%"><tspan id="tspan2196" x="252.631" y="111.41">Client</tspan></text><text id="text2198" x="451.529" y="110.338" fill="#000" fill-opacity="1" stroke="none" stroke-linecap="butt" stroke-linejoin="miter" stroke-opacity="1" stroke-width="1" font-family="Bitstream Vera Sans" font-size="23.764" font-stretch="normal" font-style="oblique" font-variant="normal" font-weight="normal" text-anchor="start" writing-mode="lr-tb" xml:space="preserve" style="text-align:start;line-height:125%"><tspan id="tspan2200" x="451.529" y="110.338">Server</tspan></text><text id="text2202" x="368.263" y="64.309" fill="#000" fill-opacity="1" stroke="none" stroke-linecap="butt" stroke-linejoin="miter" stroke-opacity="1" stroke-width="1" font-family="Bitstream Vera Sans" font-size="10.137" font-stretch="normal" font-style="oblique" font-variant="normal" font-weight="normal" text-anchor="start" writing-mode="lr-tb" xml:space="preserve" style="text-align:start;line-height:125%"><tspan id="tspan2204" x="368.263" y="64.309">request</tspan></text><text id="text2206" x="365.677" y="147.057" fill="#000" fill-opacity="1" stroke="none" stroke-linecap="butt" stroke-linejoin="miter" stroke-opacity="1" stroke-width="1" font-family="Bitstream Vera Sans" font-size="10.137" font-stretch="normal" font-style="oblique" font-variant="normal" font-weight="normal" text-anchor="start" writing-mode="lr-tb" xml:space="preserve" style="text-align:start;line-height:125%"><tspan id="tspan2208" x="365.677" y="147.057">response</tspan></text><text id="text2210" x="455.149" y="127.922" fill="#000" fill-opacity="1" stroke="none" stroke-linecap="butt" stroke-linejoin="miter" stroke-opacity="1" stroke-width="1" font-family="Courier" font-size="10.137" font-stretch="normal" font-style="normal" font-variant="normal" font-weight="bold" text-anchor="start" writing-mode="lr-tb" xml:space="preserve" style="text-align:start;line-height:-200%"><tspan id="tspan2212" x="455.149" y="127.922">send()</tspan></text><text id="text2214" x="454.115" y="83.962" fill="#000" fill-opacity="1" stroke="none" stroke-linecap="butt" stroke-linejoin="miter" stroke-opacity="1" stroke-width="1" font-family="Courier" font-size="10.137" font-stretch="normal" font-style="normal" font-variant="normal" font-weight="bold" text-anchor="start" writing-mode="lr-tb" xml:space="preserve" style="text-align:start;line-height:-200%"><tspan id="tspan2216" x="454.115" y="83.962">recv()</tspan></text><text font-family="Courier" style="text-align:start;line-height:-200%" id="text2218" x="286.032" y="128.439" fill="#000" fill-opacity="1" stroke="none" stroke-linecap="butt" stroke-linejoin="miter" stroke-opacity="1" stroke-width="1" font-size="10.137" font-stretch="normal" font-style="normal" font-variant="normal" font-weight="bold" text-anchor="start" writing-mode="lr-tb" xml:space="preserve"><tspan id="tspan2220" x="286.032" y="128.439">recv()</tspan></text><text font-family="Courier" style="text-align:start;line-height:-200%" id="text2222" x="284.48" y="84.479" fill="#000" fill-opacity="1" stroke="none" stroke-linecap="butt" stroke-linejoin="miter" stroke-opacity="1" stroke-width="1" font-size="10.137" font-stretch="normal" font-style="normal" font-variant="normal" font-weight="bold" text-anchor="start" writing-mode="lr-tb" xml:space="preserve"><tspan id="tspan2224" x="284.48" y="84.479">send()</tspan></text><path id="path2226" fill="none" fill-opacity=".75" fill-rule="evenodd" stroke="#000" stroke-dasharray=".724 1.448" stroke-dashoffset="0" stroke-linecap="butt" stroke-linejoin="miter" stroke-miterlimit="4" stroke-opacity="1" stroke-width=".724" d="M 376.53787,47.241975 C 371.83172,47.466077 366.15873,43.776891 362.05689,45.173263 C 358.05628,46.535174 353.48360,51.365957 352.23051,55.516823 C 350.72532,60.502768 351.83341,67.480127 353.78204,72.583696 C 355.45365,76.961724 361.16956,79.713685 363.09125,83.961612 C 364.44502,86.954177 364.44296,91.152483 363.60843,94.305171 C 362.89143,97.013833 360.02128,99.043605 358.43664,101.54566 C 356.74582,104.21538 354.04298,106.95025 353.78204,109.82051 C 353.52580,112.63921 355.28671,116.03733 356.88512,118.61253 C 358.38978,121.03672 362.68809,122.39974 363.09125,124.81867 C 363.55005,127.57152 360.98492,131.17972 359.47100,134.12787 C 357.70946,137.55824 353.77294,140.60095 353.26487,143.95425 C 352.91098,146.28991 354.91527,149.45940 356.88512,151.19474 C 362.15576,155.83793 368.66000,160.77829 374.98634,163.08984 C 377.62442,164.05375 380.93647,161.96842 383.77837,161.02113 C 386.10825,160.24450 388.13289,158.28819 390.50168,157.91806 C 393.64946,157.42622 397.10517,157.92636 400.32807,158.43524 C 403.65609,158.96071 406.86367,160.22336 410.15445,161.02113 C 412.55263,161.60250 415.64904,163.67193 417.39494,162.57266 C 420.30364,160.74125 423.71554,155.93403 424.11825,152.22910 C 424.57750,148.00397 422.32734,142.66325 419.98082,138.78247 C 417.84513,135.25037 412.53329,133.52762 410.67162,129.99045 C 409.08544,126.97671 408.75762,122.51296 409.63727,119.12971 C 410.99873,113.89333 415.72802,109.35454 417.39493,104.13155 C 418.31391,101.25208 418.46073,97.527839 417.39493,94.822350 C 416.21963,91.838881 411.78507,90.033882 410.67162,87.064680 C 409.71636,84.517317 410.27223,80.930729 411.18880,78.272654 C 411.99615,75.931342 414.73697,74.358410 415.84340,72.066519 C 417.15047,69.359023 418.51706,66.170621 418.42930,63.274492 C 418.34466,60.481663 417.27116,57.058986 415.32622,54.999645 C 411.40980,50.852850 406.06881,46.614924 400.84524,44.656086 C 397.79396,43.511856 393.92099,45.794057 390.50168,45.690441 C 388.23204,45.621664 385.95174,43.897422 383.77837,44.138908 C 381.29713,44.414600 379.07221,47.121292 376.53787,47.241975 z"/><text id="text2228" x="262.386" y="-275.189" fill="#000" fill-opacity="1" stroke="none" stroke-linecap="butt" stroke-linejoin="miter" stroke-opacity="1" stroke-width="1" font-family="Sans" font-size="8.447" font-stretch="normal" font-style="italic" font-variant="normal" font-weight="normal" text-anchor="start" transform="matrix(0.515222,0.857057,-0.857057,0.515222,0.000000,0.000000)" writing-mode="lr-tb" xml:space="preserve" style="text-align:start;line-height:125%"><tspan id="tspan2230" x="262.386" y="-275.189">The Network</tspan></text></g></svg>